<?xml version="1.0" encoding="UTF-8"?>
<svg version="1.1" xmlns="http://www.w3.org/2000/svg" width="512" height="512">
<path d="M0 0 C1.51427582 0.00081573 1.51427582 0.00081573 3.05914307 0.00164795 C19.56873539 0.04241399 35.48532001 0.94970691 51.6875 4.375 C52.72938477 4.59462402 53.77126953 4.81424805 54.84472656 5.04052734 C101.93325182 15.31161197 143.8605975 38.20506027 178.6875 71.375 C179.585896 72.23037354 179.585896 72.23037354 180.50244141 73.10302734 C188.84560078 81.10600112 196.49095187 89.32479841 203.37695312 98.61572266 C204.70547091 100.39912413 206.06110037 102.15909516 207.421875 103.91796875 C214.78116971 113.54366112 220.89519954 123.74359138 226.6875 134.375 C227.0494043 135.0354834 227.41130859 135.6959668 227.78417969 136.37646484 C245.51216381 169.12658288 256.68366409 207.34379778 256.890625 244.73046875 C256.89763931 245.5865271 256.90465363 246.44258545 256.91188049 247.32458496 C256.92927398 250.07061092 256.93573257 252.81642098 256.9375 255.5625 C256.93851212 256.97252792 256.93851212 256.97252792 256.93954468 258.41104126 C256.92334307 272.61924372 256.37279265 286.38887655 253.6875 300.375 C253.45401855 301.70096191 253.45401855 301.70096191 253.21582031 303.05371094 C246.07402179 343.21029068 228.94881456 381.38051842 203.6875 413.375 C202.74197266 414.60863281 202.74197266 414.60863281 201.77734375 415.8671875 C196.16239054 423.08476595 189.99171024 429.76124413 183.6875 436.375 C183.21376953 436.87209473 182.74003906 437.36918945 182.25195312 437.88134766 C175.80077567 444.60170116 169.01854844 450.63635142 161.6875 456.375 C160.70265625 457.16519531 159.7178125 457.95539063 158.703125 458.76953125 C125.64520322 485.05849963 86.10432831 501.8427387 44.6875 509.375 C43.800625 509.54016113 42.91375 509.70532227 42 509.87548828 C14.65962507 514.73544096 -16.05126373 514.64423764 -43.3125 509.375 C-44.24046387 509.20339355 -45.16842773 509.03178711 -46.12451172 508.85498047 C-85.19280823 501.50133475 -124.1913685 485.46384169 -155.3125 460.375 C-156.24191406 459.63636719 -157.17132813 458.89773438 -158.12890625 458.13671875 C-174.28255476 445.128426 -189.65809866 430.85864391 -202.00927734 414.13574219 C-203.36100483 412.30946668 -204.73562589 410.50208921 -206.11328125 408.6953125 C-212.48339917 400.26737621 -218.10267029 391.56062378 -223.3125 382.375 C-223.96734375 381.24191406 -224.6221875 380.10882813 -225.296875 378.94140625 C-237.73388688 356.9111925 -245.86651103 332.66702206 -251.125 308 C-251.32005127 307.08669922 -251.51510254 306.17339844 -251.71606445 305.23242188 C-254.96041134 289.07795002 -255.68757695 273.18531683 -255.625 256.75 C-255.62284485 255.73176147 -255.6206897 254.71352295 -255.61846924 253.66442871 C-255.56877396 239.04252576 -255.26311242 224.74366068 -252.3125 210.375 C-252.11382324 209.36244141 -251.91514648 208.34988281 -251.71044922 207.30664062 C-244.34049943 170.45137112 -229.54567801 135.73026148 -207.3125 105.375 C-206.89645508 104.80201172 -206.48041016 104.22902344 -206.05175781 103.63867188 C-200.49943955 96.03890873 -194.44637523 89.07384403 -187.9765625 82.25 C-185.33187136 79.46818013 -185.33187136 79.46818013 -183.18359375 76.69921875 C-181.48386714 74.58786733 -179.81800296 72.92497981 -177.75 71.1875 C-174.51827402 68.43608559 -171.40752084 65.5917 -168.3125 62.6875 C-135.56825261 32.95680285 -94.12085921 13.80599889 -51.125 4.625 C-50.20017822 4.42616211 -49.27535645 4.22732422 -48.32250977 4.02246094 C-32.2380391 0.75541228 -16.3721011 -0.03330603 0 0 Z " fill="#5E0E3F" transform="translate(255.3125,-0.375)"/>
<path d="M0 0 C0.93981248 -0.00623996 1.87962496 -0.01247993 2.8479166 -0.01890898 C6.00490281 -0.03489545 9.16112296 -0.0222124 12.31811523 -0.00964355 C14.5782008 -0.01506215 16.83828284 -0.02218332 19.09835815 -0.03088379 C25.24290975 -0.04915119 31.38719332 -0.04203538 37.53174973 -0.02936745 C43.95476772 -0.01925753 50.37776238 -0.02862753 56.80078125 -0.03491211 C68.27963733 -0.04266115 79.75834465 -0.03021151 91.23717558 -0.00987476 C101.64670299 0.00799652 112.05605198 0.00489248 122.46557617 -0.0135498 C134.55140598 -0.03495191 146.63710099 -0.0429261 158.72295666 -0.03110075 C165.12151055 -0.02485676 171.5199415 -0.02405514 177.91848755 -0.0372467 C183.93332307 -0.04878045 189.94782084 -0.04082447 195.96261978 -0.01766968 C198.17336592 -0.01236938 200.38414036 -0.0139188 202.59487534 -0.02272034 C205.60644319 -0.03360701 208.61692015 -0.01999509 211.62841797 0 C212.50895623 -0.00892289 213.3894945 -0.01784577 214.29671574 -0.02703905 C215.10339412 -0.01660806 215.9100725 -0.00617707 216.74119568 0.00457001 C217.78369303 0.00554412 217.78369303 0.00554412 218.84725094 0.00653791 C221.78957373 0.75656449 222.98274215 2.12601272 224.81420898 4.50793457 C225.31560564 7.05197525 225.31560564 7.05197525 225.31757355 9.98651123 C225.32800454 11.10669521 225.33843553 12.2268792 225.34918261 13.38100815 C225.34025972 14.61173176 225.33133683 15.84245537 225.32214355 17.11047363 C225.32838352 18.41780582 225.33462348 19.72513802 225.34105253 21.07208633 C225.35778266 24.70396928 225.3494831 28.33543293 225.33710766 31.96731758 C225.32807441 35.88286332 225.34201828 39.79833588 225.35302734 43.71386719 C225.37083568 51.38561008 225.36696233 59.05719665 225.35537678 66.72894573 C225.34635181 72.96262078 225.34511439 79.19625194 225.34947205 85.42993164 C225.35008498 86.31635039 225.35069791 87.20276913 225.35132942 88.11604905 C225.35260829 89.91666 225.35390514 91.71727094 225.35521978 93.51788187 C225.36663236 110.41151218 225.35350126 127.30505574 225.33201832 144.19867182 C225.31414671 158.70154244 225.31725063 173.20428501 225.33569336 187.70715332 C225.35708812 204.53936243 225.36553366 221.37149547 225.3532443 238.20371628 C225.35197008 239.99779001 225.35071259 241.79186375 225.34947205 243.5859375 C225.34854639 244.91009623 225.34854639 244.91009623 225.34760204 246.26100564 C225.34414495 252.48888233 225.3499852 258.71671085 225.35939026 264.94458008 C225.37059616 272.5318866 225.3676 280.11902755 225.34626728 287.70631504 C225.33573775 291.5792407 225.33166713 295.45189008 225.34486389 299.32481384 C225.35893804 303.51858276 225.34216051 307.711651 225.32214355 311.90539551 C225.33106644 313.13611912 225.33998933 314.36684273 225.34918261 315.63486099 C225.33353612 317.31513697 225.33353612 317.31513697 225.31757355 319.02935791 C225.31692414 319.99775478 225.31627473 320.96615166 225.31560564 321.96389389 C224.66361862 325.2720163 223.44989286 326.46380825 220.81420898 328.50793457 C218.20776821 328.89265408 216.02635848 329.03249973 213.42376709 328.98895264 C212.67894073 328.99237671 211.93411438 328.99580078 211.16671753 328.99932861 C208.66178165 329.00595227 206.15791435 328.983854 203.65307617 328.96203613 C201.83034932 328.9608109 200.00762056 328.96134458 198.18489456 328.96349716 C193.29950364 328.96440096 188.41450387 328.94120224 183.52920532 328.91305542 C178.94662225 328.89029131 174.36413477 328.88920383 169.78149414 328.88635254 C156.37568052 328.86535541 142.96993983 328.80951087 129.56420898 328.75793457 C99.61670898 328.67543457 69.66920898 328.59293457 38.81420898 328.50793457 C38.48420898 261.51793457 38.15420898 194.52793457 37.81420898 125.50793457 C20.98420898 125.17793457 4.15420898 124.84793457 -13.18579102 124.50793457 C-13.27607215 108.93096653 -13.34976167 93.35416952 -13.3930397 77.77701187 C-13.41366824 70.54432054 -13.44179413 63.31180325 -13.48754883 56.07922363 C-13.52740802 49.7755623 -13.55322172 43.47202702 -13.56214499 37.16824317 C-13.56736154 33.83004814 -13.58172062 30.49249918 -13.60871124 27.15436554 C-13.63764477 23.42857768 -13.64175107 19.70354281 -13.63989258 15.97766113 C-13.66146423 14.31609985 -13.66146423 14.31609985 -13.68347168 12.62097168 C-13.67797302 11.60577454 -13.67247437 10.59057739 -13.66680908 9.5446167 C-13.67049625 8.66338261 -13.67418343 7.78214851 -13.67798233 6.87421036 C-12.13959332 -0.52180122 -6.2203428 -0.06303351 0 0 Z " fill="#FBFAFB" transform="translate(150.185791015625,91.4920654296875)"/>
<path d="M0 0 C15.18 0 30.36 0 46 0 C46 65.34 46 130.68 46 198 C32.14 198 18.28 198 4 198 C-0.45648484 193.54351516 -0.45648484 193.54351516 -0.51632524 188.4060905 C-0.50467387 187.66289789 -0.4930225 186.91970529 -0.48101807 186.1539917 C-0.48443577 185.35836484 -0.48785347 184.56273798 -0.49137473 183.74300122 C-0.49796915 181.07407045 -0.47595236 178.40614296 -0.45410156 175.73730469 C-0.45297342 173.82540918 -0.4536063 171.91351193 -0.45587158 170.00161743 C-0.45702095 164.80765375 -0.43347546 159.6140583 -0.40557575 154.42018032 C-0.38059929 148.99361975 -0.37822306 143.56705108 -0.37347412 138.14044189 C-0.36103331 127.86277983 -0.32819667 117.58528761 -0.28807616 107.3077004 C-0.2433929 95.60773328 -0.22138007 83.90775813 -0.20129442 72.20772696 C-0.15946503 48.13836873 -0.08609877 24.06924339 0 0 Z " fill="#FBFAFB" transform="translate(137,222)"/>
<path d="M0 0 C5.42418623 4.47239506 9.46326495 9.76088859 11.6953125 16.45703125 C12.56453481 27.54317806 11.42366973 35.12703757 4.3828125 43.76953125 C-0.63780419 49.17800674 -6.05869773 52.18512058 -13.4765625 52.66015625 C-24.53364114 52.80500881 -31.09601069 51.59947712 -39.25 43.8828125 C-45.0103374 37.08210998 -47.15501381 29.07907804 -46.71875 20.2734375 C-45.53433411 12.21717472 -41.30925418 5.85056571 -35.3046875 0.45703125 C-24.06615386 -7.31162922 -11.518785 -7.71172894 0 0 Z " fill="#FBFBFB" transform="translate(220.3046875,133.54296875)"/>
<path d="M0 0 C7.67648411 4.48843607 15.00829356 11.70235629 18.33203125 20.0625 C20.75869561 30.73414678 20.45592364 42.04016703 14.7578125 51.5546875 C9.09572956 59.43127399 0.86438264 66.29091676 -9 68 C-20.89744439 69.07322308 -30.33519313 67.0066684 -39.8125 59.5625 C-46.89323545 52.63681715 -51.19754013 44.33352425 -51.67773438 34.45898438 C-51.72882126 22.90313166 -48.81554815 14.70794513 -40.73828125 6.33984375 C-29.01302969 -3.67930844 -14.21555355 -6.57438341 0 0 Z M-40.453125 15.875 C-45.3439301 22.59368176 -46.03828031 29.85504375 -45 38 C-42.50624993 47.73405826 -37.62249675 53.91289426 -29.1328125 59.15234375 C-21.49202971 62.71039067 -11.35050673 62.19600009 -3.5625 59.4375 C4.25835785 55.77749263 8.81329793 49.88109114 12 42 C14.37430825 34.87707524 14.13257355 26.37167313 10.9375 19.5625 C5.89235155 10.95607029 -0.4766836 6.16187253 -10.0390625 3.4140625 C-22.25575215 0.83444277 -32.79527292 6.65847006 -40.453125 15.875 Z " fill="#651847" transform="translate(219,125)"/>
<path d="M0 0 C0.77399643 0.00718552 1.54799286 0.01437103 2.34544373 0.02177429 C3.5362278 0.02246162 3.5362278 0.02246162 4.75106812 0.02316284 C6.42975865 0.02618539 8.10844637 0.03407179 9.78709412 0.0464325 C12.36588906 0.06469419 14.94432524 0.06694217 17.5231781 0.06669617 C19.15143643 0.07161108 20.77969232 0.07743929 22.40794373 0.08427429 C23.57197472 0.08594353 23.57197472 0.08594353 24.75952148 0.08764648 C30.1942374 0.13619297 30.1942374 0.13619297 31.31028748 1.25224304 C31.56444297 5.89239629 31.49551545 10.5434561 31.49778748 15.18974304 C31.51003357 16.50394226 31.52227966 17.81814148 31.53489685 19.17216492 C31.53683044 20.42448914 31.53876404 21.67681335 31.54075623 22.96708679 C31.54486511 24.12329529 31.548974 25.27950378 31.5532074 26.4707489 C31.31028748 29.25224304 31.31028748 29.25224304 29.31028748 31.25224304 C26.68088552 31.45189677 24.15908584 31.53208414 21.52903748 31.51786804 C20.75974915 31.51978149 19.99046082 31.52169495 19.19786072 31.52366638 C17.57045668 31.52502812 15.94304177 31.52133243 14.31565857 31.51298523 C11.82013117 31.50228525 9.32532365 31.51288056 6.82981873 31.52568054 C5.25039005 31.52435894 3.67096182 31.52179655 2.09153748 31.51786804 C1.34255188 31.5219165 0.59356628 31.52596497 -0.17811584 31.53013611 C-5.45979009 31.48216547 -5.45979009 31.48216547 -7.68971252 29.25224304 C-7.94850159 26.57841492 -7.94850159 26.57841492 -7.95533752 23.22099304 C-7.95791565 22.01829773 -7.96049377 20.81560242 -7.96315002 19.57646179 C-7.95541565 18.3144696 -7.94768127 17.05247742 -7.93971252 15.75224304 C-7.9474469 14.49025085 -7.95518127 13.22825867 -7.96315002 11.92802429 C-7.9605719 10.72532898 -7.95799377 9.52263367 -7.95533752 8.28349304 C-7.95308167 7.17554382 -7.95082581 6.0675946 -7.94850159 4.92607117 C-7.44229133 -0.30413141 -4.58037993 0.01964421 0 0 Z " fill="#671B49" transform="translate(309.68971252441406,132.7477569580078)"/>
<path d="M0 0 C0.73151779 0.00719055 1.46303558 0.0143811 2.21672058 0.02178955 C2.98754471 0.0214975 3.75836884 0.02120544 4.55255127 0.02090454 C7.10657413 0.02230059 9.66030713 0.03787454 12.21427917 0.05352783 C13.98261862 0.05725699 15.75096012 0.06010442 17.51930237 0.06210327 C22.17840763 0.06974741 26.83738862 0.08940255 31.4964447 0.11151123 C36.24872659 0.13195289 41.00102852 0.14110139 45.75334167 0.15118408 C55.08152134 0.17264774 64.40960868 0.20679305 73.73771667 0.24884033 C74.11990435 1.90498691 74.45166769 3.57341058 74.73771667 5.24884033 C73.02942257 6.95713443 70.87767291 6.3685596 68.59985352 6.3732605 C67.86474045 6.36966522 67.12962738 6.36606995 66.37223816 6.36236572 C65.60156006 6.36251175 64.83088196 6.36265778 64.03684998 6.36280823 C61.47747529 6.36210893 58.91817247 6.35431579 56.35881042 6.34649658 C54.58904053 6.34463246 52.81927011 6.34320853 51.04949951 6.34220886 C46.38220302 6.33838321 41.71493744 6.32855253 37.0476532 6.31750488 C32.28874632 6.30729177 27.52983447 6.30271146 22.7709198 6.29766846 C13.42650514 6.28693031 4.08211348 6.26985332 -5.26228333 6.24884033 C-5.92228333 4.92884033 -6.58228333 3.60884033 -7.26228333 2.24884033 C-4.78567029 -0.2277727 -3.37897887 0.01391817 0 0 Z " fill="#5F0F40" transform="translate(266.2622833251953,179.75115966796875)"/>
<path d="M0 0 C8.58 0 17.16 0 26 0 C26 5.94 26 11.88 26 18 C17.42 18 8.84 18 0 18 C0 12.06 0 6.12 0 0 Z " fill="#FBFAFA" transform="translate(309,139)"/>
<path d="M0 0 C21.12 0 42.24 0 64 0 C64.495 2.475 64.495 2.475 65 5 C63.20903955 6.79096045 60.53667215 6.12766791 58.11914062 6.12939453 C56.2321344 6.13412277 56.2321344 6.13412277 54.30700684 6.13894653 C52.92342087 6.13715675 51.53983522 6.1351058 50.15625 6.1328125 C48.74759911 6.13348559 47.33894834 6.13445565 45.93029785 6.13571167 C42.97451677 6.13718842 40.01876586 6.13503483 37.06298828 6.13037109 C33.26625416 6.12467381 29.46959072 6.12795293 25.67285919 6.13394356 C22.76303572 6.13754979 19.85322912 6.1364103 16.94340515 6.13381577 C15.543106 6.13314667 14.14280533 6.13397432 12.74250793 6.13629532 C10.78862536 6.13882283 8.83473745 6.13429033 6.88085938 6.12939453 C5.76690796 6.12859894 4.65295654 6.12780334 3.50524902 6.12698364 C1 6 1 6 0 5 C0 3.35 0 1.7 0 0 Z " fill="#5F0F40" transform="translate(208,384)"/>
<path d="M0 0 C21.12 0 42.24 0 64 0 C64.495 2.475 64.495 2.475 65 5 C63.20903955 6.79096045 60.53667215 6.12766791 58.11914062 6.12939453 C56.2321344 6.13412277 56.2321344 6.13412277 54.30700684 6.13894653 C52.92342087 6.13715675 51.53983522 6.1351058 50.15625 6.1328125 C48.74759911 6.13348559 47.33894834 6.13445565 45.93029785 6.13571167 C42.97451677 6.13718842 40.01876586 6.13503483 37.06298828 6.13037109 C33.26625416 6.12467381 29.46959072 6.12795293 25.67285919 6.13394356 C22.76303572 6.13754979 19.85322912 6.1364103 16.94340515 6.13381577 C15.543106 6.13314667 14.14280533 6.13397432 12.74250793 6.13629532 C10.78862536 6.13882283 8.83473745 6.13429033 6.88085938 6.12939453 C5.76690796 6.12859894 4.65295654 6.12780334 3.50524902 6.12698364 C1 6 1 6 0 5 C0 3.35 0 1.7 0 0 Z " fill="#5F1040" transform="translate(208,356)"/>
<path d="M0 0 C0.86825912 0.00222061 1.73651825 0.00444122 2.63108826 0.00672913 C3.61202957 0.00680466 4.59297089 0.00688019 5.6036377 0.00695801 C6.6702916 0.01211929 7.7369455 0.01728058 8.83592224 0.02259827 C9.92211349 0.02401321 11.00830475 0.02542816 12.12741089 0.02688599 C15.61230674 0.03250403 19.09713941 0.04505959 22.58201599 0.05775452 C24.93813486 0.06276719 27.29425473 0.0673305 29.65037537 0.07142639 C35.44011063 0.08247933 41.2298088 0.09923501 47.01951599 0.12025452 C47.40170366 1.77640109 47.73346701 3.44482476 48.01951599 5.12025452 C47.01951599 6.12025452 47.01951599 6.12025452 45.03903198 6.24050903 C44.17077286 6.23828842 43.30251373 6.23606781 42.40794373 6.23377991 C41.42700241 6.23370438 40.4460611 6.23362885 39.43539429 6.23355103 C38.36874039 6.22838974 37.30208649 6.22322845 36.20310974 6.21791077 C34.57382286 6.21578835 34.57382286 6.21578835 32.91162109 6.21362305 C29.42672524 6.208005 25.94189257 6.19544944 22.45701599 6.18275452 C20.10089712 6.17774184 17.74477726 6.17317853 15.38865662 6.16908264 C9.59892135 6.15802971 3.80922318 6.14127403 -1.98048401 6.12025452 C-2.36267168 4.46410794 -2.69443503 2.79568427 -2.98048401 1.12025452 C-1.98048401 0.12025452 -1.98048401 0.12025452 0 0 Z " fill="#5F1041" transform="translate(295.98048400878906,383.87974548339844)"/>
<path d="M0 0 C0.86825912 0.00222061 1.73651825 0.00444122 2.63108826 0.00672913 C3.61202957 0.00680466 4.59297089 0.00688019 5.6036377 0.00695801 C6.6702916 0.01211929 7.7369455 0.01728058 8.83592224 0.02259827 C9.92211349 0.02401321 11.00830475 0.02542816 12.12741089 0.02688599 C15.61230674 0.03250403 19.09713941 0.04505959 22.58201599 0.05775452 C24.93813486 0.06276719 27.29425473 0.0673305 29.65037537 0.07142639 C35.44011063 0.08247933 41.2298088 0.09923501 47.01951599 0.12025452 C47.40170366 1.77640109 47.73346701 3.44482476 48.01951599 5.12025452 C47.01951599 6.12025452 47.01951599 6.12025452 45.03903198 6.24050903 C44.17077286 6.23828842 43.30251373 6.23606781 42.40794373 6.23377991 C41.42700241 6.23370438 40.4460611 6.23362885 39.43539429 6.23355103 C38.36874039 6.22838974 37.30208649 6.22322845 36.20310974 6.21791077 C34.57382286 6.21578835 34.57382286 6.21578835 32.91162109 6.21362305 C29.42672524 6.208005 25.94189257 6.19544944 22.45701599 6.18275452 C20.10089712 6.17774184 17.74477726 6.17317853 15.38865662 6.16908264 C9.59892135 6.15802971 3.80922318 6.14127403 -1.98048401 6.12025452 C-2.36267168 4.46410794 -2.69443503 2.79568427 -2.98048401 1.12025452 C-1.98048401 0.12025452 -1.98048401 0.12025452 0 0 Z " fill="#5F1041" transform="translate(295.98048400878906,355.87974548339844)"/>
<path d="M0 0 C0.86825912 0.00222061 1.73651825 0.00444122 2.63108826 0.00672913 C3.61202957 0.00680466 4.59297089 0.00688019 5.6036377 0.00695801 C6.6702916 0.01211929 7.7369455 0.01728058 8.83592224 0.02259827 C9.92211349 0.02401321 11.00830475 0.02542816 12.12741089 0.02688599 C15.61230674 0.03250403 19.09713941 0.04505959 22.58201599 0.05775452 C24.93813486 0.06276719 27.29425473 0.0673305 29.65037537 0.07142639 C35.44011063 0.08247933 41.2298088 0.09923501 47.01951599 0.12025452 C47.40170366 1.77640109 47.73346701 3.44482476 48.01951599 5.12025452 C47.01951599 6.12025452 47.01951599 6.12025452 45.03903198 6.24050903 C44.17077286 6.23828842 43.30251373 6.23606781 42.40794373 6.23377991 C41.42700241 6.23370438 40.4460611 6.23362885 39.43539429 6.23355103 C38.36874039 6.22838974 37.30208649 6.22322845 36.20310974 6.21791077 C34.57382286 6.21578835 34.57382286 6.21578835 32.91162109 6.21362305 C29.42672524 6.208005 25.94189257 6.19544944 22.45701599 6.18275452 C20.10089712 6.17774184 17.74477726 6.17317853 15.38865662 6.16908264 C9.59892135 6.15802971 3.80922318 6.14127403 -1.98048401 6.12025452 C-2.36267168 4.46410794 -2.69443503 2.79568427 -2.98048401 1.12025452 C-1.98048401 0.12025452 -1.98048401 0.12025452 0 0 Z " fill="#5F1040" transform="translate(295.98048400878906,299.87974548339844)"/>
<path d="M0 0 C0.86825912 0.00222061 1.73651825 0.00444122 2.63108826 0.00672913 C3.61202957 0.00680466 4.59297089 0.00688019 5.6036377 0.00695801 C6.6702916 0.01211929 7.7369455 0.01728058 8.83592224 0.02259827 C9.92211349 0.02401321 11.00830475 0.02542816 12.12741089 0.02688599 C15.61230674 0.03250403 19.09713941 0.04505959 22.58201599 0.05775452 C24.93813486 0.06276719 27.29425473 0.0673305 29.65037537 0.07142639 C35.44011063 0.08247933 41.2298088 0.09923501 47.01951599 0.12025452 C47.40170366 1.77640109 47.73346701 3.44482476 48.01951599 5.12025452 C47.01951599 6.12025452 47.01951599 6.12025452 45.03903198 6.24050903 C44.17077286 6.23828842 43.30251373 6.23606781 42.40794373 6.23377991 C41.42700241 6.23370438 40.4460611 6.23362885 39.43539429 6.23355103 C38.36874039 6.22838974 37.30208649 6.22322845 36.20310974 6.21791077 C34.57382286 6.21578835 34.57382286 6.21578835 32.91162109 6.21362305 C29.42672524 6.208005 25.94189257 6.19544944 22.45701599 6.18275452 C20.10089712 6.17774184 17.74477726 6.17317853 15.38865662 6.16908264 C9.59892135 6.15802971 3.80922318 6.14127403 -1.98048401 6.12025452 C-2.36267168 4.46410794 -2.69443503 2.79568427 -2.98048401 1.12025452 C-1.98048401 0.12025452 -1.98048401 0.12025452 0 0 Z " fill="#5F1041" transform="translate(295.98048400878906,271.87974548339844)"/>
<path d="M0 0 C0.86825912 0.00222061 1.73651825 0.00444122 2.63108826 0.00672913 C3.61202957 0.00680466 4.59297089 0.00688019 5.6036377 0.00695801 C6.6702916 0.01211929 7.7369455 0.01728058 8.83592224 0.02259827 C9.92211349 0.02401321 11.00830475 0.02542816 12.12741089 0.02688599 C15.61230674 0.03250403 19.09713941 0.04505959 22.58201599 0.05775452 C24.93813486 0.06276719 27.29425473 0.0673305 29.65037537 0.07142639 C35.44011063 0.08247933 41.2298088 0.09923501 47.01951599 0.12025452 C47.40170366 1.77640109 47.73346701 3.44482476 48.01951599 5.12025452 C47.01951599 6.12025452 47.01951599 6.12025452 45.03903198 6.24050903 C44.17077286 6.23828842 43.30251373 6.23606781 42.40794373 6.23377991 C41.42700241 6.23370438 40.4460611 6.23362885 39.43539429 6.23355103 C38.36874039 6.22838974 37.30208649 6.22322845 36.20310974 6.21791077 C34.57382286 6.21578835 34.57382286 6.21578835 32.91162109 6.21362305 C29.42672524 6.208005 25.94189257 6.19544944 22.45701599 6.18275452 C20.10089712 6.17774184 17.74477726 6.17317853 15.38865662 6.16908264 C9.59892135 6.15802971 3.80922318 6.14127403 -1.98048401 6.12025452 C-2.36267168 4.46410794 -2.69443503 2.79568427 -2.98048401 1.12025452 C-1.98048401 0.12025452 -1.98048401 0.12025452 0 0 Z " fill="#5F1040" transform="translate(295.98048400878906,215.87974548339844)"/>
<path d="M0 0 C0.87454834 0.00523682 1.74909668 0.01047363 2.65014648 0.01586914 C3.59438477 0.0190918 4.53862305 0.02231445 5.51147461 0.02563477 C6.50469727 0.03401367 7.49791992 0.04239258 8.52124023 0.05102539 C9.51833008 0.05553711 10.51541992 0.06004883 11.54272461 0.06469727 C14.01478872 0.07652532 16.48673541 0.0930069 18.95874023 0.11352539 C19.34092791 1.76967196 19.67269125 3.43809563 19.95874023 5.11352539 C18.95874023 6.11352539 18.95874023 6.11352539 16.91748047 6.22705078 C16.04293213 6.22181396 15.16838379 6.21657715 14.26733398 6.21118164 C13.3230957 6.20795898 12.37885742 6.20473633 11.40600586 6.20141602 C10.4127832 6.19303711 9.41956055 6.1846582 8.39624023 6.17602539 C7.39915039 6.17151367 6.40206055 6.16700195 5.37475586 6.16235352 C2.90269175 6.15052546 0.43074506 6.13404388 -2.04125977 6.11352539 C-2.42344744 4.45737882 -2.75521078 2.78895515 -3.04125977 1.11352539 C-2.04125977 0.11352539 -2.04125977 0.11352539 0 0 Z " fill="#621444" transform="translate(253.041259765625,299.886474609375)"/>
<path d="M0 0 C0.87454834 0.00523682 1.74909668 0.01047363 2.65014648 0.01586914 C3.59438477 0.0190918 4.53862305 0.02231445 5.51147461 0.02563477 C6.50469727 0.03401367 7.49791992 0.04239258 8.52124023 0.05102539 C9.51833008 0.05553711 10.51541992 0.06004883 11.54272461 0.06469727 C14.01478872 0.07652532 16.48673541 0.0930069 18.95874023 0.11352539 C19.34092791 1.76967196 19.67269125 3.43809563 19.95874023 5.11352539 C18.95874023 6.11352539 18.95874023 6.11352539 16.91748047 6.22705078 C16.04293213 6.22181396 15.16838379 6.21657715 14.26733398 6.21118164 C13.3230957 6.20795898 12.37885742 6.20473633 11.40600586 6.20141602 C10.4127832 6.19303711 9.41956055 6.1846582 8.39624023 6.17602539 C7.39915039 6.17151367 6.40206055 6.16700195 5.37475586 6.16235352 C2.90269175 6.15052546 0.43074506 6.13404388 -2.04125977 6.11352539 C-2.42344744 4.45737882 -2.75521078 2.78895515 -3.04125977 1.11352539 C-2.04125977 0.11352539 -2.04125977 0.11352539 0 0 Z " fill="#631544" transform="translate(253.041259765625,271.886474609375)"/>
<path d="M0 0 C0.87454834 0.00523682 1.74909668 0.01047363 2.65014648 0.01586914 C3.59438477 0.0190918 4.53862305 0.02231445 5.51147461 0.02563477 C6.50469727 0.03401367 7.49791992 0.04239258 8.52124023 0.05102539 C9.51833008 0.05553711 10.51541992 0.06004883 11.54272461 0.06469727 C14.01478872 0.07652532 16.48673541 0.0930069 18.95874023 0.11352539 C19.34092791 1.76967196 19.67269125 3.43809563 19.95874023 5.11352539 C18.95874023 6.11352539 18.95874023 6.11352539 16.91748047 6.22705078 C16.04293213 6.22181396 15.16838379 6.21657715 14.26733398 6.21118164 C13.3230957 6.20795898 12.37885742 6.20473633 11.40600586 6.20141602 C10.4127832 6.19303711 9.41956055 6.1846582 8.39624023 6.17602539 C7.39915039 6.17151367 6.40206055 6.16700195 5.37475586 6.16235352 C2.90269175 6.15052546 0.43074506 6.13404388 -2.04125977 6.11352539 C-2.42344744 4.45737882 -2.75521078 2.78895515 -3.04125977 1.11352539 C-2.04125977 0.11352539 -2.04125977 0.11352539 0 0 Z " fill="#621444" transform="translate(253.041259765625,215.886474609375)"/>
<path d="M0 0 C0.82741699 0.01047363 1.65483398 0.02094727 2.50732422 0.03173828 C3.40322266 0.03818359 4.29912109 0.04462891 5.22216797 0.05126953 C6.62789062 0.07640625 6.62789062 0.07640625 8.06201172 0.10205078 C9.00689453 0.11107422 9.95177734 0.12009766 10.92529297 0.12939453 C13.26278464 0.15300556 15.59977295 0.18593562 17.93701172 0.22705078 C18.31919939 1.88319735 18.65096274 3.55162102 18.93701172 5.22705078 C17.93701172 6.22705078 17.93701172 6.22705078 15.98754883 6.34057617 C15.15489502 6.33533936 14.32224121 6.33010254 13.46435547 6.32470703 C12.56523437 6.32148438 11.66611328 6.31826172 10.73974609 6.31494141 C9.79421875 6.3065625 8.84869141 6.29818359 7.87451172 6.28955078 C6.92511719 6.28503906 5.97572266 6.28052734 4.99755859 6.27587891 C2.64398107 6.26405188 0.29052695 6.24757103 -2.06298828 6.22705078 C-2.72298828 4.90705078 -3.38298828 3.58705078 -4.06298828 2.22705078 C-2.06298828 0.22705078 -2.06298828 0.22705078 0 0 Z " fill="#601141" transform="translate(211.06298828125,299.77294921875)"/>
<path d="M0 0 C0.82741699 0.01047363 1.65483398 0.02094727 2.50732422 0.03173828 C3.40322266 0.03818359 4.29912109 0.04462891 5.22216797 0.05126953 C6.62789062 0.07640625 6.62789062 0.07640625 8.06201172 0.10205078 C9.00689453 0.11107422 9.95177734 0.12009766 10.92529297 0.12939453 C13.26278464 0.15300556 15.59977295 0.18593562 17.93701172 0.22705078 C18.31919939 1.88319735 18.65096274 3.55162102 18.93701172 5.22705078 C17.93701172 6.22705078 17.93701172 6.22705078 15.98754883 6.34057617 C15.15489502 6.33533936 14.32224121 6.33010254 13.46435547 6.32470703 C12.56523437 6.32148438 11.66611328 6.31826172 10.73974609 6.31494141 C9.79421875 6.3065625 8.84869141 6.29818359 7.87451172 6.28955078 C6.92511719 6.28503906 5.97572266 6.28052734 4.99755859 6.27587891 C2.64398107 6.26405188 0.29052695 6.24757103 -2.06298828 6.22705078 C-2.72298828 4.90705078 -3.38298828 3.58705078 -4.06298828 2.22705078 C-2.06298828 0.22705078 -2.06298828 0.22705078 0 0 Z " fill="#601141" transform="translate(211.06298828125,271.77294921875)"/>
<path d="M0 0 C0.82741699 0.01047363 1.65483398 0.02094727 2.50732422 0.03173828 C3.40322266 0.03818359 4.29912109 0.04462891 5.22216797 0.05126953 C6.62789062 0.07640625 6.62789062 0.07640625 8.06201172 0.10205078 C9.00689453 0.11107422 9.95177734 0.12009766 10.92529297 0.12939453 C13.26278464 0.15300556 15.59977295 0.18593562 17.93701172 0.22705078 C18.31919939 1.88319735 18.65096274 3.55162102 18.93701172 5.22705078 C17.93701172 6.22705078 17.93701172 6.22705078 15.98754883 6.34057617 C15.15489502 6.33533936 14.32224121 6.33010254 13.46435547 6.32470703 C12.56523437 6.32148438 11.66611328 6.31826172 10.73974609 6.31494141 C9.79421875 6.3065625 8.84869141 6.29818359 7.87451172 6.28955078 C6.92511719 6.28503906 5.97572266 6.28052734 4.99755859 6.27587891 C2.64398107 6.26405188 0.29052695 6.24757103 -2.06298828 6.22705078 C-2.72298828 4.90705078 -3.38298828 3.58705078 -4.06298828 2.22705078 C-2.06298828 0.22705078 -2.06298828 0.22705078 0 0 Z " fill="#601141" transform="translate(211.06298828125,215.77294921875)"/>
</svg>
